<?xml version="1.0" encoding="utf-8"?>
<!-- Generator: Adobe Illustrator 24.2.3, SVG Export Plug-In . SVG Version: 6.00 Build 0)  -->
<svg version="1.1" id="Capa_1" xmlns="http://www.w3.org/2000/svg" xmlns:xlink="http://www.w3.org/1999/xlink" x="0px" y="0px"
	 viewBox="0 0 139.62 139.62" style="enable-background:new 0 0 139.62 139.62;" xml:space="preserve">
<style type="text/css">
	.st0{fill:#1D1D1B;}
	.st1{fill:#66676B;}
	.st2{fill:#4CAF50;}
	.st3{fill:none;stroke:#4CAF50;stroke-width:5;stroke-miterlimit:10;}
	.st4{fill:none;stroke:#1D1D1B;stroke-width:5;stroke-miterlimit:10;}
	.st5{fill:#FFFFFF;}
</style>
<g>
	<circle class="st2" cx="69.81" cy="69.81" r="69.81"/>
	<g>
		<g>
			<path class="st5" d="M96.08,99.71c-6.13,0-10.97-3.12-13.38-5.77l-0.12-0.17c-3.03-5.18-5.29-17.3,7.8-26.08
				c13.46-9.03,38.05-9.23,39.09-9.23l1.37-0.01l-0.42,1.31c-0.32,0.99-7.86,24.4-20.5,34.54C104.96,98.28,100.22,99.71,96.08,99.71
				z M84.25,92.67c1.03,1.07,11,10.83,24.42,0.07c10.49-8.41,17.58-27.09,19.39-32.25c-5.46,0.18-25.41,1.37-36.57,8.86
				C77.2,78.94,83.53,91.37,84.25,92.67z"/>
		</g>
		<g>
			<g>
				<g>
					<path class="st5" d="M69.81,104.28c-0.31,0-0.61-0.14-0.81-0.41c-0.33-0.44-0.23-1.07,0.21-1.4l39.47-28.99
						c0.44-0.33,1.07-0.23,1.4,0.21c0.33,0.44,0.23,1.07-0.21,1.4L70.4,104.09C70.22,104.22,70.02,104.28,69.81,104.28z"/>
				</g>
			</g>
			<g>
				<g>
					<path class="st5" d="M112.22,66.26c-0.13,1.47-0.44,2.87-0.8,4.26c-0.35,1.39-0.8,2.74-1.28,4.08l-0.9-1.23
						c1.43-0.04,2.86-0.06,4.3,0.03c1.44,0.08,2.87,0.22,4.32,0.55c-1.42,0.44-2.84,0.69-4.26,0.89c-1.43,0.2-2.85,0.3-4.28,0.37
						c-0.5,0.03-0.93-0.36-0.95-0.86c-0.01-0.13,0.02-0.26,0.06-0.37c0.51-1.33,1.03-2.66,1.66-3.94
						C110.7,68.74,111.37,67.47,112.22,66.26z"/>
				</g>
			</g>
			<g>
				<g>
					<path class="st5" d="M102.72,67.17c0.04,2.29-0.1,4.56-0.3,6.81c-0.19,2.26-0.49,4.5-0.8,6.74l-0.76-1.04
						c2.24,0.37,4.47,0.77,6.69,1.27c2.22,0.49,4.43,1.05,6.61,1.78c-2.3,0.02-4.57-0.14-6.84-0.37c-2.26-0.22-4.51-0.54-6.76-0.88
						c-0.5-0.08-0.84-0.54-0.76-1.03l0-0.01c0.35-2.23,0.73-4.46,1.21-6.68C101.48,71.55,102.02,69.35,102.72,67.17z"/>
				</g>
			</g>
			<g>
				<g>
					<path class="st5" d="M92.18,71.88c0.28,2.58,0.39,5.15,0.43,7.72c0.05,2.57,0,5.13-0.08,7.7l-0.67-0.92
						c2.48,0.7,4.95,1.43,7.39,2.25c2.45,0.82,4.88,1.7,7.26,2.75c-2.58-0.32-5.12-0.81-7.64-1.37c-2.52-0.55-5.01-1.2-7.5-1.87
						c-0.42-0.11-0.69-0.5-0.67-0.92c0.11-2.56,0.25-5.13,0.49-7.68C91.41,76.99,91.7,74.43,92.18,71.88z"/>
				</g>
			</g>
		</g>
		<g>
			<path class="st5" d="M43.54,99.71c-4.15,0-8.88-1.43-13.84-5.41C17.07,84.16,9.52,60.76,9.21,59.77l-0.42-1.31l1.37,0.01
				c1.04,0,25.63,0.2,39.09,9.23c13.09,8.78,10.82,20.9,7.8,26.08l-0.12,0.17C54.52,96.59,49.67,99.71,43.54,99.71z M11.57,60.5
				c1.81,5.15,8.9,23.84,19.39,32.25c13.42,10.77,23.39,1.01,24.42-0.07c0.72-1.3,7.05-13.74-7.24-23.32
				C36.97,61.86,17.02,60.68,11.57,60.5z"/>
		</g>
		<g>
			<g>
				<g>
					<path class="st5" d="M69.81,104.28c-0.21,0-0.41-0.06-0.59-0.19L29.75,75.1c-0.45-0.33-0.54-0.95-0.21-1.4
						c0.33-0.45,0.95-0.54,1.4-0.21l39.47,28.99c0.45,0.33,0.54,0.95,0.21,1.4C70.42,104.14,70.12,104.28,69.81,104.28z"/>
				</g>
			</g>
			<g>
				<g>
					<path class="st5" d="M27.41,66.26c0.84,1.21,1.52,2.48,2.14,3.77c0.63,1.29,1.15,2.61,1.66,3.94c0.18,0.47-0.06,0.99-0.53,1.17
						c-0.12,0.05-0.25,0.06-0.37,0.06c-1.43-0.07-2.86-0.17-4.28-0.37c-1.43-0.19-2.85-0.45-4.26-0.89
						c1.45-0.33,2.88-0.47,4.32-0.55c1.44-0.09,2.87-0.07,4.3-0.03l-0.9,1.23c-0.47-1.34-0.92-2.7-1.28-4.08
						C27.84,69.14,27.54,67.73,27.41,66.26z"/>
				</g>
			</g>
			<g>
				<g>
					<path class="st5" d="M36.9,67.17c0.71,2.18,1.24,4.39,1.71,6.6c0.48,2.21,0.85,4.44,1.21,6.68c0.08,0.5-0.26,0.96-0.76,1.04
						l-0.01,0c-2.24,0.34-4.49,0.66-6.76,0.88c-2.26,0.23-4.54,0.39-6.84,0.37c2.18-0.74,4.39-1.29,6.61-1.78
						c2.22-0.5,4.45-0.9,6.69-1.27L38,80.72c-0.32-2.24-0.61-4.48-0.8-6.74C37,71.72,36.86,69.46,36.9,67.17z"/>
				</g>
			</g>
			<g>
				<g>
					<path class="st5" d="M47.44,71.88c0.47,2.55,0.76,5.11,0.99,7.67c0.24,2.56,0.37,5.12,0.49,7.68c0.02,0.43-0.27,0.81-0.67,0.92
						c-2.49,0.67-4.98,1.32-7.5,1.87c-2.52,0.56-5.05,1.05-7.64,1.37c2.38-1.06,4.81-1.94,7.26-2.75c2.44-0.83,4.92-1.55,7.39-2.25
						L47.1,87.3c-0.08-2.56-0.13-5.13-0.08-7.7C47.06,77.03,47.16,74.46,47.44,71.88z"/>
				</g>
			</g>
		</g>
		<g>
			<path class="st5" d="M76.97,81.24h-14.3c-0.73,0-1.31-0.59-1.31-1.31v-0.27c0-0.73,0.59-1.31,1.31-1.31h14.3
				c0.73,0,1.31,0.59,1.31,1.31v0.27C78.29,80.65,77.7,81.24,76.97,81.24z"/>
		</g>
		<g>
			<rect x="68.82" y="83.76" class="st5" width="2" height="31.73"/>
		</g>
		<g>
			<g>
				<path class="st5" d="M75.15,76.71H64.49c-2.66,0-4.82-2.16-4.82-4.82v-0.73C50.06,66.9,44.11,57.1,44.79,46.55
					c0.81-12.54,10.88-22.58,23.42-23.36c7.02-0.44,13.68,1.96,18.78,6.75c5.03,4.72,7.91,11.39,7.91,18.28
					c0,9.99-5.84,18.92-14.93,22.94v0.73C79.97,74.55,77.81,76.71,75.15,76.71z M69.84,25.14c-0.5,0-1,0.02-1.5,0.05
					c-11.54,0.72-20.8,9.96-21.55,21.49c-0.65,9.93,5.09,19.13,14.28,22.9l0.71,0.29l-0.09,0.76l-0.01,1.26
					c0,1.55,1.26,2.82,2.82,2.82h10.66c1.55,0,2.82-1.26,2.82-2.82v-1.22l-0.09-0.76l0.7-0.33c8.71-3.57,14.33-11.96,14.33-21.36
					c0-6.44-2.59-12.42-7.28-16.83C81.3,27.33,75.74,25.14,69.84,25.14z"/>
			</g>
			<g>
				<g>
					<path class="st5" d="M66.71,76.4L64.75,76l0.1-0.49c0.8-3.84-0.68-10.26-2.59-14.74c-0.43-0.02-0.87-0.07-1.32-0.16
						c-3.09-0.57-4.93-2.22-5.04-4.54c-0.06-1.18,0.61-2.52,2-2.81c0.92-0.19,1.87,0.21,2.83,1.17c0.93,0.93,1.89,2.41,2.8,4.29
						c0.54-0.07,1.01-0.22,1.41-0.45c0.2-0.12,0.39-0.25,0.57-0.41c-1.08-1.14-1.62-2.61-1.46-4.01c0.13-1.07,0.85-2.1,1.79-2.58
						c0.78-0.39,1.63-0.37,2.38,0.07c1.04,0.61,1.52,1.83,1.15,2.98L69.2,54.9c-0.25,0.79-0.52,1.67-0.93,2.51
						c0.34,0.16,0.7,0.27,1.07,0.33c0.93,0.15,1.97-0.02,2.87-0.48c-0.65-1.05-0.94-2.28-0.8-3.44c0.11-0.88,0.75-1.58,1.69-1.81
						c1-0.25,2.05,0.12,2.6,0.91c0.57,0.83,0.67,1.89,0.31,2.99c-0.18,0.55-0.47,1.06-0.86,1.53c0.1,0.06,0.2,0.12,0.31,0.17
						c0.28,0.14,0.58,0.25,0.9,0.33c0.51-1.06,1.08-2.08,1.7-3.02c0.37-0.55,1.45-2.19,3.31-1.98c0.93,0.1,1.77,0.71,2.14,1.56
						c0.51,1.15,0.19,2.46-0.87,3.6c-1.18,1.26-3.05,2.03-5.05,2c-2.02,4.92-2.56,10.44-2.94,15.67l-0.04,0.5l-2-0.14l0.04-0.5
						c0.36-5,0.92-10.74,2.9-15.83c-0.35-0.11-0.69-0.24-1.01-0.4c-0.34-0.17-0.66-0.38-0.97-0.62c-1.38,0.84-3.02,1.17-4.56,0.92
						c-0.66-0.11-1.3-0.32-1.89-0.63c-0.36,0.37-0.76,0.69-1.2,0.94c-0.47,0.26-0.99,0.46-1.56,0.59
						c1.84,4.55,3.33,11.08,2.45,15.31L66.71,76.4z M65.92,75.22L65.92,75.22c0.67-4.22-0.91-10.56-2.72-14.81l-0.26-0.6l0.11,0.26
						C65.01,64.54,66.57,71.05,65.92,75.22z M76.91,59.12l-0.22,0.54c-0.18,0.43-0.34,0.86-0.5,1.3c0.19-0.52,0.39-1.04,0.61-1.55
						L76.91,59.12L76.91,59.12z M62.93,59.78l0.01,0.02l0.51-0.06c-0.06,0.01-0.12,0.01-0.19,0.02L62.93,59.78z M58.06,58.31
						c0.7,0.6,1.69,1.04,2.94,1.29C60.23,59.45,58.98,59.09,58.06,58.31z M66.62,58.14l-0.03,0.03c-0.34,0.4-0.73,0.73-1.16,0.98
						c-0.06,0.03-0.12,0.06-0.17,0.09c0.06-0.03,0.12-0.06,0.17-0.09C65.88,58.89,66.27,58.56,66.62,58.14z M77.52,59.11
						c1.53,0.01,3.03-0.48,4.05-1.35c-0.97,0.83-2.38,1.33-3.86,1.35L77.52,59.11z M74.65,58.32c0.11,0.07,0.23,0.14,0.35,0.2
						c0.41,0.21,0.86,0.36,1.33,0.46l0.59,0.12l0.01-0.02l-0.37-0.06c-0.56-0.1-1.09-0.26-1.56-0.5
						C74.88,58.46,74.76,58.39,74.65,58.32z M66.92,57.8l0.36,0.22c0.59,0.36,1.22,0.6,1.9,0.71c1.39,0.23,2.93-0.13,4.13-0.95
						l-0.11,0.07c-1.19,0.77-2.7,1.09-4.02,0.88c-0.65-0.11-1.27-0.34-1.85-0.68L66.92,57.8L66.92,57.8z M58.34,55.21l-0.04,0
						c-0.27,0.06-0.42,0.43-0.4,0.75c0.09,1.83,2.32,2.47,3.35,2.66c-0.65-1.21-1.31-2.17-1.93-2.79
						C58.85,55.38,58.51,55.21,58.34,55.21z M78.14,56.71c-0.35,0.61-0.68,1.25-0.99,1.9l0.11-0.22
						C77.53,57.81,77.82,57.25,78.14,56.71z M81.04,54.94c-0.27,0-0.67,0.12-1.32,1.1c-0.42,0.63-0.81,1.29-1.17,1.99
						c1.06-0.17,2.02-0.64,2.63-1.29c0.18-0.19,0.75-0.86,0.5-1.42c-0.09-0.2-0.3-0.35-0.54-0.38L81.04,54.94z M65.05,53.91
						c0,0.02,0,0.04-0.01,0.05c-0.15,1.23,0.42,2.54,1.5,3.51l0.13,0.12l-0.24-0.22c-1.01-0.96-1.54-2.23-1.4-3.4
						C65.05,53.95,65.05,53.93,65.05,53.91z M82.68,56.13c-0.14,0.52-0.46,0.96-0.69,1.22C82.34,56.95,82.57,56.53,82.68,56.13z
						 M57.97,54.27c-0.75,0.23-1.11,1.03-1.07,1.74c0,0.07,0.01,0.15,0.02,0.22c-0.01-0.07-0.01-0.15-0.02-0.22
						C56.86,55.32,57.22,54.5,57.97,54.27z M66.98,53c-0.08,0-0.15,0.02-0.24,0.06c-0.34,0.17-0.66,0.63-0.7,1.02
						c-0.08,0.67,0.15,1.4,0.62,2.03c0.25-0.58,0.44-1.2,0.63-1.81l0.19-0.6c0.08-0.26-0.01-0.51-0.24-0.64
						C67.14,53.02,67.06,53,66.98,53z M68.42,54.03l-0.18,0.57c-0.15,0.48-0.31,1-0.5,1.51c0.2-0.51,0.35-1.03,0.5-1.51L68.42,54.03
						z M73.73,53.93c-0.05,0-0.11,0.01-0.15,0.02c-0.09,0.02-0.18,0.07-0.18,0.11c-0.08,0.63,0.06,1.3,0.37,1.9
						c0.15-0.22,0.26-0.44,0.34-0.68c0.1-0.29,0.22-0.83-0.05-1.23C73.97,53.95,73.8,53.93,73.73,53.93z M75.2,54.4
						c0.05,0.48-0.05,0.92-0.15,1.21c-0.03,0.1-0.07,0.2-0.11,0.3c0.04-0.1,0.08-0.2,0.11-0.3C75.19,55.18,75.24,54.77,75.2,54.4z
						 M80.2,54.16c-0.61,0.32-1.03,0.92-1.26,1.27C79.26,54.95,79.67,54.44,80.2,54.16z M58.34,54.21c0.48,0,1.01,0.28,1.58,0.82
						c-0.61-0.59-1.17-0.86-1.69-0.82C58.27,54.21,58.31,54.21,58.34,54.21z M73.27,53c-0.5,0.14-0.82,0.49-0.88,0.94
						c-0.01,0.12-0.02,0.24-0.03,0.36c0-0.12,0.01-0.24,0.03-0.36C72.46,53.42,72.88,53.11,73.27,53z M68.43,54.01
						C68.43,54.01,68.43,54.01,68.43,54.01L68.43,54.01C68.43,54.02,68.43,54.01,68.43,54.01z M81.04,53.94c0.07,0,0.14,0,0.22,0.01
						c0.09,0.01,0.17,0.03,0.25,0.05c-0.08-0.02-0.17-0.04-0.26-0.05c-0.08-0.01-0.14-0.02-0.23-0.01
						C81.04,53.94,81.04,53.94,81.04,53.94z M74.83,53.44c0.01,0.02,0.03,0.04,0.04,0.06c0.02,0.03,0.04,0.05,0.05,0.08
						c-0.02-0.03-0.03-0.05-0.05-0.08C74.86,53.47,74.85,53.46,74.83,53.44z M73.73,52.93c-0.07,0-0.13,0-0.2,0.01
						c0.1-0.01,0.2-0.02,0.3-0.01C73.79,52.94,73.76,52.93,73.73,52.93z M66.98,52c0.26,0,0.51,0.07,0.75,0.21
						c0.29,0.17,0.5,0.41,0.63,0.69c-0.13-0.28-0.34-0.52-0.63-0.69c-0.46-0.27-0.95-0.28-1.43-0.04c-0.17,0.08-0.32,0.19-0.47,0.33
						c0.14-0.13,0.3-0.25,0.47-0.33C66.52,52.05,66.75,52,66.98,52z"/>
				</g>
			</g>
		</g>
	</g>
</g>
</svg>
