<svg xmlns="http://www.w3.org/2000/svg" version="1.1" xmlns:xlink="http://www.w3.org/1999/xlink" xmlns:svgjs="http://svgjs.com/svgjs" width="1132" height="1381.25" viewBox="0 0 1132 1381.25" fill="#ffffff"><rect width="1105" height="1105" fill="#000000" rx="27" ry="27" x="13.5" y="13.5"></rect><rect width="1051" height="1051" fill="#ffffff" rx="27" ry="27" x="40.5" y="40.5"></rect><rect width="1105" height="221" fill="#000000" rx="27" ry="27" x="13.5" y="1145.5"></rect><defs><style>
            @import url('https://fonts.googleapis.com/css?family=Roboto:400');
    </style></defs><text x="606.5" y="1296.5" fill="#ffffff" font-family="Roboto" font-size="105.1" text-anchor="middle" svgjs:data="{&quot;leading&quot;:&quot;0&quot;}">SCAN ME</text><svg version="1.1" id="Capa_1" xmlns="http://www.w3.org/2000/svg" xmlns:xlink="http://www.w3.org/1999/xlink" x="253.23170572916672" y="1194.1" width="110.5" height="110.5" viewBox="0 0 792 792" style="enable-background:new 0 0 792 792;" xml:space="preserve">
<g>
	<path fill="#ffffff" d="M557.75,792c0,0,71.889,0,71.889-71.997V71.997C629.639,0,557.75,0,557.75,0h-323.5c0,0-71.889,0-71.889,71.997v648.006
		C162.361,792,234.25,792,234.25,792H557.75z M396,762.022c-19.841,0-35.944-16.104-35.944-35.944
		c0-19.842,16.103-35.944,35.944-35.944s35.945,16.103,35.945,35.944C431.945,745.919,415.842,762.022,396,762.022z M306.139,43.888
		c0-4.457,3.559-7.944,7.944-7.944h163.8c4.385,0,7.979,3.559,7.979,7.944v2.121c0,4.493-3.559,7.944-7.943,7.944H314.083
		c-4.349,0-7.944-3.559-7.944-7.944V43.888z M198.306,89.861h395.389v575.111H198.306V89.861z"></path>
</g>
<g>
</g>
<g>
</g>
<g>
</g>
<g>
</g>
<g>
</g>
<g>
</g>
<g>
</g>
<g>
</g>
<g>
</g>
<g>
</g>
<g>
</g>
<g>
</g>
<g>
</g>
<g>
</g>
<g>
</g>
</svg><path d="M363.5 120.5H390.5V147.5H363.5V120.5Z " fill="#000000" opacity="1"></path><path d="M390.5 120.5H417.5V147.5H390.5V120.5Z " fill="#000000" opacity="1"></path><path d="M444.5 120.5H471.5V147.5H444.5V120.5Z " fill="#000000" opacity="1"></path><path d="M471.5 120.5H498.5V147.5H471.5V120.5Z " fill="#000000" opacity="1"></path><path d="M498.5 120.5H525.5V147.5H498.5V120.5Z " fill="#000000" opacity="1"></path><path d="M525.5 120.5H552.5V147.5H525.5V120.5Z " fill="#000000" opacity="1"></path><path d="M552.5 120.5H579.5V147.5H552.5V120.5Z " fill="#000000" opacity="1"></path><path d="M633.5 120.5H660.5V147.5H633.5V120.5Z " fill="#000000" opacity="1"></path><path d="M741.5 120.5H768.5V147.5H741.5V120.5Z " fill="#000000" opacity="1"></path><path d="M768.5 120.5H795.5V147.5H768.5V120.5Z " fill="#000000" opacity="1"></path><path d="M336.5 147.5H363.5V174.5H336.5V147.5Z " fill="#000000" opacity="1"></path><path d="M444.5 147.5H471.5V174.5H444.5V147.5Z " fill="#000000" opacity="1"></path><path d="M471.5 147.5H498.5V174.5H471.5V147.5Z " fill="#000000" opacity="1"></path><path d="M552.5 147.5H579.5V174.5H552.5V147.5Z " fill="#000000" opacity="1"></path><path d="M579.5 147.5H606.5V174.5H579.5V147.5Z " fill="#000000" opacity="1"></path><path d="M606.5 147.5H633.5V174.5H606.5V147.5Z " fill="#000000" opacity="1"></path><path d="M660.5 147.5H687.5V174.5H660.5V147.5Z " fill="#000000" opacity="1"></path><path d="M687.5 147.5H714.5V174.5H687.5V147.5Z " fill="#000000" opacity="1"></path><path d="M768.5 147.5H795.5V174.5H768.5V147.5Z " fill="#000000" opacity="1"></path><path d="M363.5 174.5H390.5V201.5H363.5V174.5Z " fill="#000000" opacity="1"></path><path d="M390.5 174.5H417.5V201.5H390.5V174.5Z " fill="#000000" opacity="1"></path><path d="M471.5 174.5H498.5V201.5H471.5V174.5Z " fill="#000000" opacity="1"></path><path d="M498.5 174.5H525.5V201.5H498.5V174.5Z " fill="#000000" opacity="1"></path><path d="M525.5 174.5H552.5V201.5H525.5V174.5Z " fill="#000000" opacity="1"></path><path d="M552.5 174.5H579.5V201.5H552.5V174.5Z " fill="#000000" opacity="1"></path><path d="M579.5 174.5H606.5V201.5H579.5V174.5Z " fill="#000000" opacity="1"></path><path d="M660.5 174.5H687.5V201.5H660.5V174.5Z " fill="#000000" opacity="1"></path><path d="M687.5 174.5H714.5V201.5H687.5V174.5Z " fill="#000000" opacity="1"></path><path d="M417.5 201.5H444.5V228.5H417.5V201.5Z " fill="#000000" opacity="1"></path><path d="M444.5 201.5H471.5V228.5H444.5V201.5Z " fill="#000000" opacity="1"></path><path d="M471.5 201.5H498.5V228.5H471.5V201.5Z " fill="#000000" opacity="1"></path><path d="M498.5 201.5H525.5V228.5H498.5V201.5Z " fill="#000000" opacity="1"></path><path d="M525.5 201.5H552.5V228.5H525.5V201.5Z " fill="#000000" opacity="1"></path><path d="M714.5 201.5H741.5V228.5H714.5V201.5Z " fill="#000000" opacity="1"></path><path d="M768.5 201.5H795.5V228.5H768.5V201.5Z " fill="#000000" opacity="1"></path><path d="M363.5 228.5H390.5V255.5H363.5V228.5Z " fill="#000000" opacity="1"></path><path d="M390.5 228.5H417.5V255.5H390.5V228.5Z " fill="#000000" opacity="1"></path><path d="M552.5 228.5H579.5V255.5H552.5V228.5Z " fill="#000000" opacity="1"></path><path d="M606.5 228.5H633.5V255.5H606.5V228.5Z " fill="#000000" opacity="1"></path><path d="M660.5 228.5H687.5V255.5H660.5V228.5Z " fill="#000000" opacity="1"></path><path d="M687.5 228.5H714.5V255.5H687.5V228.5Z " fill="#000000" opacity="1"></path><path d="M768.5 228.5H795.5V255.5H768.5V228.5Z " fill="#000000" opacity="1"></path><path d="M498.5 255.5H525.5V282.5H498.5V255.5Z " fill="#000000" opacity="1"></path><path d="M525.5 255.5H552.5V282.5H525.5V255.5Z " fill="#000000" opacity="1"></path><path d="M552.5 255.5H579.5V282.5H552.5V255.5Z " fill="#000000" opacity="1"></path><path d="M606.5 255.5H633.5V282.5H606.5V255.5Z " fill="#000000" opacity="1"></path><path d="M660.5 255.5H687.5V282.5H660.5V255.5Z " fill="#000000" opacity="1"></path><path d="M687.5 255.5H714.5V282.5H687.5V255.5Z " fill="#000000" opacity="1"></path><path d="M714.5 255.5H741.5V282.5H714.5V255.5Z " fill="#000000" opacity="1"></path><path d="M444.5 309.5H471.5V336.5H444.5V309.5Z " fill="#000000" opacity="1"></path><path d="M498.5 309.5H525.5V336.5H498.5V309.5Z " fill="#000000" opacity="1"></path><path d="M525.5 309.5H552.5V336.5H525.5V309.5Z " fill="#000000" opacity="1"></path><path d="M552.5 309.5H579.5V336.5H552.5V309.5Z " fill="#000000" opacity="1"></path><path d="M579.5 309.5H606.5V336.5H579.5V309.5Z " fill="#000000" opacity="1"></path><path d="M606.5 309.5H633.5V336.5H606.5V309.5Z " fill="#000000" opacity="1"></path><path d="M633.5 309.5H660.5V336.5H633.5V309.5Z " fill="#000000" opacity="1"></path><path d="M660.5 309.5H687.5V336.5H660.5V309.5Z " fill="#000000" opacity="1"></path><path d="M687.5 309.5H714.5V336.5H687.5V309.5Z " fill="#000000" opacity="1"></path><path d="M714.5 309.5H741.5V336.5H714.5V309.5Z " fill="#000000" opacity="1"></path><path d="M741.5 309.5H768.5V336.5H741.5V309.5Z " fill="#000000" opacity="1"></path><path d="M363.5 336.5H390.5V363.5H363.5V336.5Z " fill="#000000" opacity="1"></path><path d="M417.5 336.5H444.5V363.5H417.5V336.5Z " fill="#000000" opacity="1"></path><path d="M471.5 336.5H498.5V363.5H471.5V336.5Z " fill="#000000" opacity="1"></path><path d="M498.5 336.5H525.5V363.5H498.5V336.5Z " fill="#000000" opacity="1"></path><path d="M525.5 336.5H552.5V363.5H525.5V336.5Z " fill="#000000" opacity="1"></path><path d="M552.5 336.5H579.5V363.5H552.5V336.5Z " fill="#000000" opacity="1"></path><path d="M633.5 336.5H660.5V363.5H633.5V336.5Z " fill="#000000" opacity="1"></path><path d="M687.5 336.5H714.5V363.5H687.5V336.5Z " fill="#000000" opacity="1"></path><path d="M714.5 336.5H741.5V363.5H714.5V336.5Z " fill="#000000" opacity="1"></path><path d="M768.5 336.5H795.5V363.5H768.5V336.5Z " fill="#000000" opacity="1"></path><path d="M822.5 336.5H849.5V363.5H822.5V336.5Z " fill="#000000" opacity="1"></path><path d="M849.5 336.5H876.5V363.5H849.5V336.5Z " fill="#000000" opacity="1"></path><path d="M957.5 336.5H984.5V363.5H957.5V336.5Z " fill="#000000" opacity="1"></path><path d="M147.5 363.5H174.5V390.5H147.5V363.5Z " fill="#000000" opacity="1"></path><path d="M228.5 363.5H255.5V390.5H228.5V363.5Z " fill="#000000" opacity="1"></path><path d="M255.5 363.5H282.5V390.5H255.5V363.5Z " fill="#000000" opacity="1"></path><path d="M309.5 363.5H336.5V390.5H309.5V363.5Z " fill="#000000" opacity="1"></path><path d="M336.5 363.5H363.5V390.5H336.5V363.5Z " fill="#000000" opacity="1"></path><path d="M390.5 363.5H417.5V390.5H390.5V363.5Z " fill="#000000" opacity="1"></path><path d="M606.5 363.5H633.5V390.5H606.5V363.5Z " fill="#000000" opacity="1"></path><path d="M633.5 363.5H660.5V390.5H633.5V363.5Z " fill="#000000" opacity="1"></path><path d="M660.5 363.5H687.5V390.5H660.5V363.5Z " fill="#000000" opacity="1"></path><path d="M687.5 363.5H714.5V390.5H687.5V363.5Z " fill="#000000" opacity="1"></path><path d="M714.5 363.5H741.5V390.5H714.5V363.5Z " fill="#000000" opacity="1"></path><path d="M849.5 363.5H876.5V390.5H849.5V363.5Z " fill="#000000" opacity="1"></path><path d="M930.5 363.5H957.5V390.5H930.5V363.5Z " fill="#000000" opacity="1"></path><path d="M120.5 390.5H147.5V417.5H120.5V390.5Z " fill="#000000" opacity="1"></path><path d="M147.5 390.5H174.5V417.5H147.5V390.5Z " fill="#000000" opacity="1"></path><path d="M201.5 390.5H228.5V417.5H201.5V390.5Z " fill="#000000" opacity="1"></path><path d="M228.5 390.5H255.5V417.5H228.5V390.5Z " fill="#000000" opacity="1"></path><path d="M309.5 390.5H336.5V417.5H309.5V390.5Z " fill="#000000" opacity="1"></path><path d="M336.5 390.5H363.5V417.5H336.5V390.5Z " fill="#000000" opacity="1"></path><path d="M363.5 390.5H390.5V417.5H363.5V390.5Z " fill="#000000" opacity="1"></path><path d="M498.5 390.5H525.5V417.5H498.5V390.5Z " fill="#000000" opacity="1"></path><path d="M552.5 390.5H579.5V417.5H552.5V390.5Z " fill="#000000" opacity="1"></path><path d="M579.5 390.5H606.5V417.5H579.5V390.5Z " fill="#000000" opacity="1"></path><path d="M606.5 390.5H633.5V417.5H606.5V390.5Z " fill="#000000" opacity="1"></path><path d="M741.5 390.5H768.5V417.5H741.5V390.5Z " fill="#000000" opacity="1"></path><path d="M795.5 390.5H822.5V417.5H795.5V390.5Z " fill="#000000" opacity="1"></path><path d="M822.5 390.5H849.5V417.5H822.5V390.5Z " fill="#000000" opacity="1"></path><path d="M849.5 390.5H876.5V417.5H849.5V390.5Z " fill="#000000" opacity="1"></path><path d="M876.5 390.5H903.5V417.5H876.5V390.5Z " fill="#000000" opacity="1"></path><path d="M903.5 390.5H930.5V417.5H903.5V390.5Z " fill="#000000" opacity="1"></path><path d="M930.5 390.5H957.5V417.5H930.5V390.5Z " fill="#000000" opacity="1"></path><path d="M957.5 390.5H984.5V417.5H957.5V390.5Z " fill="#000000" opacity="1"></path><path d="M120.5 417.5H147.5V444.5H120.5V417.5Z " fill="#000000" opacity="1"></path><path d="M201.5 417.5H228.5V444.5H201.5V417.5Z " fill="#000000" opacity="1"></path><path d="M255.5 417.5H282.5V444.5H255.5V417.5Z " fill="#000000" opacity="1"></path><path d="M309.5 417.5H336.5V444.5H309.5V417.5Z " fill="#000000" opacity="1"></path><path d="M444.5 417.5H471.5V444.5H444.5V417.5Z " fill="#000000" opacity="1"></path><path d="M552.5 417.5H579.5V444.5H552.5V417.5Z " fill="#000000" opacity="1"></path><path d="M579.5 417.5H606.5V444.5H579.5V417.5Z " fill="#000000" opacity="1"></path><path d="M660.5 417.5H687.5V444.5H660.5V417.5Z " fill="#000000" opacity="1"></path><path d="M714.5 417.5H741.5V444.5H714.5V417.5Z " fill="#000000" opacity="1"></path><path d="M741.5 417.5H768.5V444.5H741.5V417.5Z " fill="#000000" opacity="1"></path><path d="M795.5 417.5H822.5V444.5H795.5V417.5Z " fill="#000000" opacity="1"></path><path d="M822.5 417.5H849.5V444.5H822.5V417.5Z " fill="#000000" opacity="1"></path><path d="M876.5 417.5H903.5V444.5H876.5V417.5Z " fill="#000000" opacity="1"></path><path d="M957.5 417.5H984.5V444.5H957.5V417.5Z " fill="#000000" opacity="1"></path><path d="M174.5 444.5H201.5V471.5H174.5V444.5Z " fill="#000000" opacity="1"></path><path d="M363.5 444.5H390.5V471.5H363.5V444.5Z " fill="#000000" opacity="1"></path><path d="M498.5 444.5H525.5V471.5H498.5V444.5Z " fill="#000000" opacity="1"></path><path d="M525.5 444.5H552.5V471.5H525.5V444.5Z " fill="#000000" opacity="1"></path><path d="M606.5 444.5H633.5V471.5H606.5V444.5Z " fill="#000000" opacity="1"></path><path d="M714.5 444.5H741.5V471.5H714.5V444.5Z " fill="#000000" opacity="1"></path><path d="M822.5 444.5H849.5V471.5H822.5V444.5Z " fill="#000000" opacity="1"></path><path d="M957.5 444.5H984.5V471.5H957.5V444.5Z " fill="#000000" opacity="1"></path><path d="M984.5 444.5H1011.5V471.5H984.5V444.5Z " fill="#000000" opacity="1"></path><path d="M120.5 471.5H147.5V498.5H120.5V471.5Z " fill="#000000" opacity="1"></path><path d="M174.5 471.5H201.5V498.5H174.5V471.5Z " fill="#000000" opacity="1"></path><path d="M228.5 471.5H255.5V498.5H228.5V471.5Z " fill="#000000" opacity="1"></path><path d="M255.5 471.5H282.5V498.5H255.5V471.5Z " fill="#000000" opacity="1"></path><path d="M336.5 471.5H363.5V498.5H336.5V471.5Z " fill="#000000" opacity="1"></path><path d="M417.5 471.5H444.5V498.5H417.5V471.5Z " fill="#000000" opacity="1"></path><path d="M444.5 471.5H471.5V498.5H444.5V471.5Z " fill="#000000" opacity="1"></path><path d="M471.5 471.5H498.5V498.5H471.5V471.5Z " fill="#000000" opacity="1"></path><path d="M525.5 471.5H552.5V498.5H525.5V471.5Z " fill="#000000" opacity="1"></path><path d="M579.5 471.5H606.5V498.5H579.5V471.5Z " fill="#000000" opacity="1"></path><path d="M660.5 471.5H687.5V498.5H660.5V471.5Z " fill="#000000" opacity="1"></path><path d="M687.5 471.5H714.5V498.5H687.5V471.5Z " fill="#000000" opacity="1"></path><path d="M741.5 471.5H768.5V498.5H741.5V471.5Z " fill="#000000" opacity="1"></path><path d="M795.5 471.5H822.5V498.5H795.5V471.5Z " fill="#000000" opacity="1"></path><path d="M849.5 471.5H876.5V498.5H849.5V471.5Z " fill="#000000" opacity="1"></path><path d="M876.5 471.5H903.5V498.5H876.5V471.5Z " fill="#000000" opacity="1"></path><path d="M903.5 471.5H930.5V498.5H903.5V471.5Z " fill="#000000" opacity="1"></path><path d="M957.5 471.5H984.5V498.5H957.5V471.5Z " fill="#000000" opacity="1"></path><path d="M147.5 498.5H174.5V525.5H147.5V498.5Z " fill="#000000" opacity="1"></path><path d="M174.5 498.5H201.5V525.5H174.5V498.5Z " fill="#000000" opacity="1"></path><path d="M201.5 498.5H228.5V525.5H201.5V498.5Z " fill="#000000" opacity="1"></path><path d="M309.5 498.5H336.5V525.5H309.5V498.5Z " fill="#000000" opacity="1"></path><path d="M363.5 498.5H390.5V525.5H363.5V498.5Z " fill="#000000" opacity="1"></path><path d="M390.5 498.5H417.5V525.5H390.5V498.5Z " fill="#000000" opacity="1"></path><path d="M444.5 498.5H471.5V525.5H444.5V498.5Z " fill="#000000" opacity="1"></path><path d="M471.5 498.5H498.5V525.5H471.5V498.5Z " fill="#000000" opacity="1"></path><path d="M498.5 498.5H525.5V525.5H498.5V498.5Z " fill="#000000" opacity="1"></path><path d="M552.5 498.5H579.5V525.5H552.5V498.5Z " fill="#000000" opacity="1"></path><path d="M579.5 498.5H606.5V525.5H579.5V498.5Z " fill="#000000" opacity="1"></path><path d="M606.5 498.5H633.5V525.5H606.5V498.5Z " fill="#000000" opacity="1"></path><path d="M741.5 498.5H768.5V525.5H741.5V498.5Z " fill="#000000" opacity="1"></path><path d="M768.5 498.5H795.5V525.5H768.5V498.5Z " fill="#000000" opacity="1"></path><path d="M849.5 498.5H876.5V525.5H849.5V498.5Z " fill="#000000" opacity="1"></path><path d="M903.5 498.5H930.5V525.5H903.5V498.5Z " fill="#000000" opacity="1"></path><path d="M930.5 498.5H957.5V525.5H930.5V498.5Z " fill="#000000" opacity="1"></path><path d="M957.5 498.5H984.5V525.5H957.5V498.5Z " fill="#000000" opacity="1"></path><path d="M147.5 525.5H174.5V552.5H147.5V525.5Z " fill="#000000" opacity="1"></path><path d="M201.5 525.5H228.5V552.5H201.5V525.5Z " fill="#000000" opacity="1"></path><path d="M228.5 525.5H255.5V552.5H228.5V525.5Z " fill="#000000" opacity="1"></path><path d="M363.5 525.5H390.5V552.5H363.5V525.5Z " fill="#000000" opacity="1"></path><path d="M444.5 525.5H471.5V552.5H444.5V525.5Z " fill="#000000" opacity="1"></path><path d="M471.5 525.5H498.5V552.5H471.5V525.5Z " fill="#000000" opacity="1"></path><path d="M498.5 525.5H525.5V552.5H498.5V525.5Z " fill="#000000" opacity="1"></path><path d="M579.5 525.5H606.5V552.5H579.5V525.5Z " fill="#000000" opacity="1"></path><path d="M633.5 525.5H660.5V552.5H633.5V525.5Z " fill="#000000" opacity="1"></path><path d="M660.5 525.5H687.5V552.5H660.5V525.5Z " fill="#000000" opacity="1"></path><path d="M687.5 525.5H714.5V552.5H687.5V525.5Z " fill="#000000" opacity="1"></path><path d="M741.5 525.5H768.5V552.5H741.5V525.5Z " fill="#000000" opacity="1"></path><path d="M768.5 525.5H795.5V552.5H768.5V525.5Z " fill="#000000" opacity="1"></path><path d="M795.5 525.5H822.5V552.5H795.5V525.5Z " fill="#000000" opacity="1"></path><path d="M930.5 525.5H957.5V552.5H930.5V525.5Z " fill="#000000" opacity="1"></path><path d="M984.5 525.5H1011.5V552.5H984.5V525.5Z " fill="#000000" opacity="1"></path><path d="M120.5 552.5H147.5V579.5H120.5V552.5Z " fill="#000000" opacity="1"></path><path d="M174.5 552.5H201.5V579.5H174.5V552.5Z " fill="#000000" opacity="1"></path><path d="M309.5 552.5H336.5V579.5H309.5V552.5Z " fill="#000000" opacity="1"></path><path d="M336.5 552.5H363.5V579.5H336.5V552.5Z " fill="#000000" opacity="1"></path><path d="M417.5 552.5H444.5V579.5H417.5V552.5Z " fill="#000000" opacity="1"></path><path d="M444.5 552.5H471.5V579.5H444.5V552.5Z " fill="#000000" opacity="1"></path><path d="M525.5 552.5H552.5V579.5H525.5V552.5Z " fill="#000000" opacity="1"></path><path d="M552.5 552.5H579.5V579.5H552.5V552.5Z " fill="#000000" opacity="1"></path><path d="M579.5 552.5H606.5V579.5H579.5V552.5Z " fill="#000000" opacity="1"></path><path d="M606.5 552.5H633.5V579.5H606.5V552.5Z " fill="#000000" opacity="1"></path><path d="M660.5 552.5H687.5V579.5H660.5V552.5Z " fill="#000000" opacity="1"></path><path d="M687.5 552.5H714.5V579.5H687.5V552.5Z " fill="#000000" opacity="1"></path><path d="M822.5 552.5H849.5V579.5H822.5V552.5Z " fill="#000000" opacity="1"></path><path d="M849.5 552.5H876.5V579.5H849.5V552.5Z " fill="#000000" opacity="1"></path><path d="M876.5 552.5H903.5V579.5H876.5V552.5Z " fill="#000000" opacity="1"></path><path d="M930.5 552.5H957.5V579.5H930.5V552.5Z " fill="#000000" opacity="1"></path><path d="M957.5 552.5H984.5V579.5H957.5V552.5Z " fill="#000000" opacity="1"></path><path d="M120.5 579.5H147.5V606.5H120.5V579.5Z " fill="#000000" opacity="1"></path><path d="M147.5 579.5H174.5V606.5H147.5V579.5Z " fill="#000000" opacity="1"></path><path d="M174.5 579.5H201.5V606.5H174.5V579.5Z " fill="#000000" opacity="1"></path><path d="M255.5 579.5H282.5V606.5H255.5V579.5Z " fill="#000000" opacity="1"></path><path d="M309.5 579.5H336.5V606.5H309.5V579.5Z " fill="#000000" opacity="1"></path><path d="M336.5 579.5H363.5V606.5H336.5V579.5Z " fill="#000000" opacity="1"></path><path d="M390.5 579.5H417.5V606.5H390.5V579.5Z " fill="#000000" opacity="1"></path><path d="M444.5 579.5H471.5V606.5H444.5V579.5Z " fill="#000000" opacity="1"></path><path d="M498.5 579.5H525.5V606.5H498.5V579.5Z " fill="#000000" opacity="1"></path><path d="M525.5 579.5H552.5V606.5H525.5V579.5Z " fill="#000000" opacity="1"></path><path d="M552.5 579.5H579.5V606.5H552.5V579.5Z " fill="#000000" opacity="1"></path><path d="M579.5 579.5H606.5V606.5H579.5V579.5Z " fill="#000000" opacity="1"></path><path d="M687.5 579.5H714.5V606.5H687.5V579.5Z " fill="#000000" opacity="1"></path><path d="M741.5 579.5H768.5V606.5H741.5V579.5Z " fill="#000000" opacity="1"></path><path d="M768.5 579.5H795.5V606.5H768.5V579.5Z " fill="#000000" opacity="1"></path><path d="M957.5 579.5H984.5V606.5H957.5V579.5Z " fill="#000000" opacity="1"></path><path d="M984.5 579.5H1011.5V606.5H984.5V579.5Z " fill="#000000" opacity="1"></path><path d="M120.5 606.5H147.5V633.5H120.5V606.5Z " fill="#000000" opacity="1"></path><path d="M174.5 606.5H201.5V633.5H174.5V606.5Z " fill="#000000" opacity="1"></path><path d="M255.5 606.5H282.5V633.5H255.5V606.5Z " fill="#000000" opacity="1"></path><path d="M336.5 606.5H363.5V633.5H336.5V606.5Z " fill="#000000" opacity="1"></path><path d="M363.5 606.5H390.5V633.5H363.5V606.5Z " fill="#000000" opacity="1"></path><path d="M390.5 606.5H417.5V633.5H390.5V606.5Z " fill="#000000" opacity="1"></path><path d="M444.5 606.5H471.5V633.5H444.5V606.5Z " fill="#000000" opacity="1"></path><path d="M498.5 606.5H525.5V633.5H498.5V606.5Z " fill="#000000" opacity="1"></path><path d="M552.5 606.5H579.5V633.5H552.5V606.5Z " fill="#000000" opacity="1"></path><path d="M579.5 606.5H606.5V633.5H579.5V606.5Z " fill="#000000" opacity="1"></path><path d="M606.5 606.5H633.5V633.5H606.5V606.5Z " fill="#000000" opacity="1"></path><path d="M633.5 606.5H660.5V633.5H633.5V606.5Z " fill="#000000" opacity="1"></path><path d="M741.5 606.5H768.5V633.5H741.5V606.5Z " fill="#000000" opacity="1"></path><path d="M768.5 606.5H795.5V633.5H768.5V606.5Z " fill="#000000" opacity="1"></path><path d="M903.5 606.5H930.5V633.5H903.5V606.5Z " fill="#000000" opacity="1"></path><path d="M228.5 633.5H255.5V660.5H228.5V633.5Z " fill="#000000" opacity="1"></path><path d="M309.5 633.5H336.5V660.5H309.5V633.5Z " fill="#000000" opacity="1"></path><path d="M336.5 633.5H363.5V660.5H336.5V633.5Z " fill="#000000" opacity="1"></path><path d="M417.5 633.5H444.5V660.5H417.5V633.5Z " fill="#000000" opacity="1"></path><path d="M525.5 633.5H552.5V660.5H525.5V633.5Z " fill="#000000" opacity="1"></path><path d="M606.5 633.5H633.5V660.5H606.5V633.5Z " fill="#000000" opacity="1"></path><path d="M660.5 633.5H687.5V660.5H660.5V633.5Z " fill="#000000" opacity="1"></path><path d="M687.5 633.5H714.5V660.5H687.5V633.5Z " fill="#000000" opacity="1"></path><path d="M714.5 633.5H741.5V660.5H714.5V633.5Z " fill="#000000" opacity="1"></path><path d="M795.5 633.5H822.5V660.5H795.5V633.5Z " fill="#000000" opacity="1"></path><path d="M957.5 633.5H984.5V660.5H957.5V633.5Z " fill="#000000" opacity="1"></path><path d="M120.5 660.5H147.5V687.5H120.5V660.5Z " fill="#000000" opacity="1"></path><path d="M255.5 660.5H282.5V687.5H255.5V660.5Z " fill="#000000" opacity="1"></path><path d="M309.5 660.5H336.5V687.5H309.5V660.5Z " fill="#000000" opacity="1"></path><path d="M336.5 660.5H363.5V687.5H336.5V660.5Z " fill="#000000" opacity="1"></path><path d="M390.5 660.5H417.5V687.5H390.5V660.5Z " fill="#000000" opacity="1"></path><path d="M417.5 660.5H444.5V687.5H417.5V660.5Z " fill="#000000" opacity="1"></path><path d="M498.5 660.5H525.5V687.5H498.5V660.5Z " fill="#000000" opacity="1"></path><path d="M525.5 660.5H552.5V687.5H525.5V660.5Z " fill="#000000" opacity="1"></path><path d="M552.5 660.5H579.5V687.5H552.5V660.5Z " fill="#000000" opacity="1"></path><path d="M633.5 660.5H660.5V687.5H633.5V660.5Z " fill="#000000" opacity="1"></path><path d="M660.5 660.5H687.5V687.5H660.5V660.5Z " fill="#000000" opacity="1"></path><path d="M687.5 660.5H714.5V687.5H687.5V660.5Z " fill="#000000" opacity="1"></path><path d="M714.5 660.5H741.5V687.5H714.5V660.5Z " fill="#000000" opacity="1"></path><path d="M768.5 660.5H795.5V687.5H768.5V660.5Z " fill="#000000" opacity="1"></path><path d="M795.5 660.5H822.5V687.5H795.5V660.5Z " fill="#000000" opacity="1"></path><path d="M822.5 660.5H849.5V687.5H822.5V660.5Z " fill="#000000" opacity="1"></path><path d="M876.5 660.5H903.5V687.5H876.5V660.5Z " fill="#000000" opacity="1"></path><path d="M903.5 660.5H930.5V687.5H903.5V660.5Z " fill="#000000" opacity="1"></path><path d="M984.5 660.5H1011.5V687.5H984.5V660.5Z " fill="#000000" opacity="1"></path><path d="M120.5 687.5H147.5V714.5H120.5V687.5Z " fill="#000000" opacity="1"></path><path d="M147.5 687.5H174.5V714.5H147.5V687.5Z " fill="#000000" opacity="1"></path><path d="M174.5 687.5H201.5V714.5H174.5V687.5Z " fill="#000000" opacity="1"></path><path d="M201.5 687.5H228.5V714.5H201.5V687.5Z " fill="#000000" opacity="1"></path><path d="M255.5 687.5H282.5V714.5H255.5V687.5Z " fill="#000000" opacity="1"></path><path d="M336.5 687.5H363.5V714.5H336.5V687.5Z " fill="#000000" opacity="1"></path><path d="M363.5 687.5H390.5V714.5H363.5V687.5Z " fill="#000000" opacity="1"></path><path d="M390.5 687.5H417.5V714.5H390.5V687.5Z " fill="#000000" opacity="1"></path><path d="M444.5 687.5H471.5V714.5H444.5V687.5Z " fill="#000000" opacity="1"></path><path d="M498.5 687.5H525.5V714.5H498.5V687.5Z " fill="#000000" opacity="1"></path><path d="M552.5 687.5H579.5V714.5H552.5V687.5Z " fill="#000000" opacity="1"></path><path d="M579.5 687.5H606.5V714.5H579.5V687.5Z " fill="#000000" opacity="1"></path><path d="M606.5 687.5H633.5V714.5H606.5V687.5Z " fill="#000000" opacity="1"></path><path d="M633.5 687.5H660.5V714.5H633.5V687.5Z " fill="#000000" opacity="1"></path><path d="M714.5 687.5H741.5V714.5H714.5V687.5Z " fill="#000000" opacity="1"></path><path d="M822.5 687.5H849.5V714.5H822.5V687.5Z " fill="#000000" opacity="1"></path><path d="M849.5 687.5H876.5V714.5H849.5V687.5Z " fill="#000000" opacity="1"></path><path d="M930.5 687.5H957.5V714.5H930.5V687.5Z " fill="#000000" opacity="1"></path><path d="M174.5 714.5H201.5V741.5H174.5V714.5Z " fill="#000000" opacity="1"></path><path d="M201.5 714.5H228.5V741.5H201.5V714.5Z " fill="#000000" opacity="1"></path><path d="M255.5 714.5H282.5V741.5H255.5V714.5Z " fill="#000000" opacity="1"></path><path d="M336.5 714.5H363.5V741.5H336.5V714.5Z " fill="#000000" opacity="1"></path><path d="M363.5 714.5H390.5V741.5H363.5V714.5Z " fill="#000000" opacity="1"></path><path d="M417.5 714.5H444.5V741.5H417.5V714.5Z " fill="#000000" opacity="1"></path><path d="M471.5 714.5H498.5V741.5H471.5V714.5Z " fill="#000000" opacity="1"></path><path d="M498.5 714.5H525.5V741.5H498.5V714.5Z " fill="#000000" opacity="1"></path><path d="M525.5 714.5H552.5V741.5H525.5V714.5Z " fill="#000000" opacity="1"></path><path d="M552.5 714.5H579.5V741.5H552.5V714.5Z " fill="#000000" opacity="1"></path><path d="M660.5 714.5H687.5V741.5H660.5V714.5Z " fill="#000000" opacity="1"></path><path d="M903.5 714.5H930.5V741.5H903.5V714.5Z " fill="#000000" opacity="1"></path><path d="M930.5 714.5H957.5V741.5H930.5V714.5Z " fill="#000000" opacity="1"></path><path d="M957.5 714.5H984.5V741.5H957.5V714.5Z " fill="#000000" opacity="1"></path><path d="M174.5 741.5H201.5V768.5H174.5V741.5Z " fill="#000000" opacity="1"></path><path d="M255.5 741.5H282.5V768.5H255.5V741.5Z " fill="#000000" opacity="1"></path><path d="M363.5 741.5H390.5V768.5H363.5V741.5Z " fill="#000000" opacity="1"></path><path d="M390.5 741.5H417.5V768.5H390.5V741.5Z " fill="#000000" opacity="1"></path><path d="M417.5 741.5H444.5V768.5H417.5V741.5Z " fill="#000000" opacity="1"></path><path d="M498.5 741.5H525.5V768.5H498.5V741.5Z " fill="#000000" opacity="1"></path><path d="M687.5 741.5H714.5V768.5H687.5V741.5Z " fill="#000000" opacity="1"></path><path d="M714.5 741.5H741.5V768.5H714.5V741.5Z " fill="#000000" opacity="1"></path><path d="M768.5 741.5H795.5V768.5H768.5V741.5Z " fill="#000000" opacity="1"></path><path d="M849.5 741.5H876.5V768.5H849.5V741.5Z " fill="#000000" opacity="1"></path><path d="M876.5 741.5H903.5V768.5H876.5V741.5Z " fill="#000000" opacity="1"></path><path d="M120.5 768.5H147.5V795.5H120.5V768.5Z " fill="#000000" opacity="1"></path><path d="M147.5 768.5H174.5V795.5H147.5V768.5Z " fill="#000000" opacity="1"></path><path d="M201.5 768.5H228.5V795.5H201.5V768.5Z " fill="#000000" opacity="1"></path><path d="M228.5 768.5H255.5V795.5H228.5V768.5Z " fill="#000000" opacity="1"></path><path d="M255.5 768.5H282.5V795.5H255.5V768.5Z " fill="#000000" opacity="1"></path><path d="M309.5 768.5H336.5V795.5H309.5V768.5Z " fill="#000000" opacity="1"></path><path d="M363.5 768.5H390.5V795.5H363.5V768.5Z " fill="#000000" opacity="1"></path><path d="M579.5 768.5H606.5V795.5H579.5V768.5Z " fill="#000000" opacity="1"></path><path d="M606.5 768.5H633.5V795.5H606.5V768.5Z " fill="#000000" opacity="1"></path><path d="M633.5 768.5H660.5V795.5H633.5V768.5Z " fill="#000000" opacity="1"></path><path d="M687.5 768.5H714.5V795.5H687.5V768.5Z " fill="#000000" opacity="1"></path><path d="M741.5 768.5H768.5V795.5H741.5V768.5Z " fill="#000000" opacity="1"></path><path d="M957.5 768.5H984.5V795.5H957.5V768.5Z " fill="#000000" opacity="1"></path><path d="M984.5 768.5H1011.5V795.5H984.5V768.5Z " fill="#000000" opacity="1"></path><path d="M336.5 795.5H363.5V822.5H336.5V795.5Z " fill="#000000" opacity="1"></path><path d="M390.5 795.5H417.5V822.5H390.5V795.5Z " fill="#000000" opacity="1"></path><path d="M417.5 795.5H444.5V822.5H417.5V795.5Z " fill="#000000" opacity="1"></path><path d="M498.5 795.5H525.5V822.5H498.5V795.5Z " fill="#000000" opacity="1"></path><path d="M525.5 795.5H552.5V822.5H525.5V795.5Z " fill="#000000" opacity="1"></path><path d="M552.5 795.5H579.5V822.5H552.5V795.5Z " fill="#000000" opacity="1"></path><path d="M633.5 795.5H660.5V822.5H633.5V795.5Z " fill="#000000" opacity="1"></path><path d="M714.5 795.5H741.5V822.5H714.5V795.5Z " fill="#000000" opacity="1"></path><path d="M741.5 795.5H768.5V822.5H741.5V795.5Z " fill="#000000" opacity="1"></path><path d="M903.5 795.5H930.5V822.5H903.5V795.5Z " fill="#000000" opacity="1"></path><path d="M336.5 822.5H363.5V849.5H336.5V822.5Z " fill="#000000" opacity="1"></path><path d="M444.5 822.5H471.5V849.5H444.5V822.5Z " fill="#000000" opacity="1"></path><path d="M498.5 822.5H525.5V849.5H498.5V822.5Z " fill="#000000" opacity="1"></path><path d="M525.5 822.5H552.5V849.5H525.5V822.5Z " fill="#000000" opacity="1"></path><path d="M552.5 822.5H579.5V849.5H552.5V822.5Z " fill="#000000" opacity="1"></path><path d="M579.5 822.5H606.5V849.5H579.5V822.5Z " fill="#000000" opacity="1"></path><path d="M606.5 822.5H633.5V849.5H606.5V822.5Z " fill="#000000" opacity="1"></path><path d="M687.5 822.5H714.5V849.5H687.5V822.5Z " fill="#000000" opacity="1"></path><path d="M714.5 822.5H741.5V849.5H714.5V822.5Z " fill="#000000" opacity="1"></path><path d="M930.5 822.5H957.5V849.5H930.5V822.5Z " fill="#000000" opacity="1"></path><path d="M957.5 822.5H984.5V849.5H957.5V822.5Z " fill="#000000" opacity="1"></path><path d="M336.5 849.5H363.5V876.5H336.5V849.5Z " fill="#000000" opacity="1"></path><path d="M363.5 849.5H390.5V876.5H363.5V849.5Z " fill="#000000" opacity="1"></path><path d="M417.5 849.5H444.5V876.5H417.5V849.5Z " fill="#000000" opacity="1"></path><path d="M471.5 849.5H498.5V876.5H471.5V849.5Z " fill="#000000" opacity="1"></path><path d="M498.5 849.5H525.5V876.5H498.5V849.5Z " fill="#000000" opacity="1"></path><path d="M579.5 849.5H606.5V876.5H579.5V849.5Z " fill="#000000" opacity="1"></path><path d="M633.5 849.5H660.5V876.5H633.5V849.5Z " fill="#000000" opacity="1"></path><path d="M660.5 849.5H687.5V876.5H660.5V849.5Z " fill="#000000" opacity="1"></path><path d="M687.5 849.5H714.5V876.5H687.5V849.5Z " fill="#000000" opacity="1"></path><path d="M741.5 849.5H768.5V876.5H741.5V849.5Z " fill="#000000" opacity="1"></path><path d="M903.5 849.5H930.5V876.5H903.5V849.5Z " fill="#000000" opacity="1"></path><path d="M957.5 849.5H984.5V876.5H957.5V849.5Z " fill="#000000" opacity="1"></path><path d="M984.5 849.5H1011.5V876.5H984.5V849.5Z " fill="#000000" opacity="1"></path><path d="M336.5 876.5H363.5V903.5H336.5V876.5Z " fill="#000000" opacity="1"></path><path d="M390.5 876.5H417.5V903.5H390.5V876.5Z " fill="#000000" opacity="1"></path><path d="M417.5 876.5H444.5V903.5H417.5V876.5Z " fill="#000000" opacity="1"></path><path d="M471.5 876.5H498.5V903.5H471.5V876.5Z " fill="#000000" opacity="1"></path><path d="M525.5 876.5H552.5V903.5H525.5V876.5Z " fill="#000000" opacity="1"></path><path d="M552.5 876.5H579.5V903.5H552.5V876.5Z " fill="#000000" opacity="1"></path><path d="M606.5 876.5H633.5V903.5H606.5V876.5Z " fill="#000000" opacity="1"></path><path d="M390.5 903.5H417.5V930.5H390.5V903.5Z " fill="#000000" opacity="1"></path><path d="M444.5 903.5H471.5V930.5H444.5V903.5Z " fill="#000000" opacity="1"></path><path d="M471.5 903.5H498.5V930.5H471.5V903.5Z " fill="#000000" opacity="1"></path><path d="M498.5 903.5H525.5V930.5H498.5V903.5Z " fill="#000000" opacity="1"></path><path d="M525.5 903.5H552.5V930.5H525.5V903.5Z " fill="#000000" opacity="1"></path><path d="M579.5 903.5H606.5V930.5H579.5V903.5Z " fill="#000000" opacity="1"></path><path d="M660.5 903.5H687.5V930.5H660.5V903.5Z " fill="#000000" opacity="1"></path><path d="M687.5 903.5H714.5V930.5H687.5V903.5Z " fill="#000000" opacity="1"></path><path d="M714.5 903.5H741.5V930.5H714.5V903.5Z " fill="#000000" opacity="1"></path><path d="M768.5 903.5H795.5V930.5H768.5V903.5Z " fill="#000000" opacity="1"></path><path d="M822.5 903.5H849.5V930.5H822.5V903.5Z " fill="#000000" opacity="1"></path><path d="M849.5 903.5H876.5V930.5H849.5V903.5Z " fill="#000000" opacity="1"></path><path d="M876.5 903.5H903.5V930.5H876.5V903.5Z " fill="#000000" opacity="1"></path><path d="M930.5 903.5H957.5V930.5H930.5V903.5Z " fill="#000000" opacity="1"></path><path d="M984.5 903.5H1011.5V930.5H984.5V903.5Z " fill="#000000" opacity="1"></path><path d="M390.5 930.5H417.5V957.5H390.5V930.5Z " fill="#000000" opacity="1"></path><path d="M444.5 930.5H471.5V957.5H444.5V930.5Z " fill="#000000" opacity="1"></path><path d="M525.5 930.5H552.5V957.5H525.5V930.5Z " fill="#000000" opacity="1"></path><path d="M552.5 930.5H579.5V957.5H552.5V930.5Z " fill="#000000" opacity="1"></path><path d="M579.5 930.5H606.5V957.5H579.5V930.5Z " fill="#000000" opacity="1"></path><path d="M633.5 930.5H660.5V957.5H633.5V930.5Z " fill="#000000" opacity="1"></path><path d="M741.5 930.5H768.5V957.5H741.5V930.5Z " fill="#000000" opacity="1"></path><path d="M768.5 930.5H795.5V957.5H768.5V930.5Z " fill="#000000" opacity="1"></path><path d="M795.5 930.5H822.5V957.5H795.5V930.5Z " fill="#000000" opacity="1"></path><path d="M822.5 930.5H849.5V957.5H822.5V930.5Z " fill="#000000" opacity="1"></path><path d="M876.5 930.5H903.5V957.5H876.5V930.5Z " fill="#000000" opacity="1"></path><path d="M363.5 957.5H390.5V984.5H363.5V957.5Z " fill="#000000" opacity="1"></path><path d="M444.5 957.5H471.5V984.5H444.5V957.5Z " fill="#000000" opacity="1"></path><path d="M471.5 957.5H498.5V984.5H471.5V957.5Z " fill="#000000" opacity="1"></path><path d="M498.5 957.5H525.5V984.5H498.5V957.5Z " fill="#000000" opacity="1"></path><path d="M552.5 957.5H579.5V984.5H552.5V957.5Z " fill="#000000" opacity="1"></path><path d="M606.5 957.5H633.5V984.5H606.5V957.5Z " fill="#000000" opacity="1"></path><path d="M660.5 957.5H687.5V984.5H660.5V957.5Z " fill="#000000" opacity="1"></path><path d="M714.5 957.5H741.5V984.5H714.5V957.5Z " fill="#000000" opacity="1"></path><path d="M741.5 957.5H768.5V984.5H741.5V957.5Z " fill="#000000" opacity="1"></path><path d="M768.5 957.5H795.5V984.5H768.5V957.5Z " fill="#000000" opacity="1"></path><path d="M795.5 957.5H822.5V984.5H795.5V957.5Z " fill="#000000" opacity="1"></path><path d="M849.5 957.5H876.5V984.5H849.5V957.5Z " fill="#000000" opacity="1"></path><path d="M876.5 957.5H903.5V984.5H876.5V957.5Z " fill="#000000" opacity="1"></path><path d="M903.5 957.5H930.5V984.5H903.5V957.5Z " fill="#000000" opacity="1"></path><path d="M390.5 984.5H417.5V1011.5H390.5V984.5Z " fill="#000000" opacity="1"></path><path d="M417.5 984.5H444.5V1011.5H417.5V984.5Z " fill="#000000" opacity="1"></path><path d="M444.5 984.5H471.5V1011.5H444.5V984.5Z " fill="#000000" opacity="1"></path><path d="M498.5 984.5H525.5V1011.5H498.5V984.5Z " fill="#000000" opacity="1"></path><path d="M660.5 984.5H687.5V1011.5H660.5V984.5Z " fill="#000000" opacity="1"></path><path d="M714.5 984.5H741.5V1011.5H714.5V984.5Z " fill="#000000" opacity="1"></path><path d="M741.5 984.5H768.5V1011.5H741.5V984.5Z " fill="#000000" opacity="1"></path><path d="M768.5 984.5H795.5V1011.5H768.5V984.5Z " fill="#000000" opacity="1"></path><path d="M795.5 984.5H822.5V1011.5H795.5V984.5Z " fill="#000000" opacity="1"></path><path d="M822.5 984.5H849.5V1011.5H822.5V984.5Z " fill="#000000" opacity="1"></path><path d="M849.5 984.5H876.5V1011.5H849.5V984.5Z " fill="#000000" opacity="1"></path><path d="M903.5 984.5H930.5V1011.5H903.5V984.5Z " fill="#000000" opacity="1"></path><path d="M930.5 984.5H957.5V1011.5H930.5V984.5Z " fill="#000000" opacity="1"></path><path d="M984.5 984.5H1011.5V1011.5H984.5V984.5Z " fill="#000000" opacity="1"></path><path d="M134 134H296V296H134V134Z " fill="none" stroke-width="27" stroke="#000000"></path><path d="M836 134H998V296H836V134Z " fill="none" stroke-width="27" stroke="#000000"></path><path d="M134 836H296V998H134V836Z " fill="none" stroke-width="27" stroke="#000000"></path><path d="M174.5 174.5H255.5V255.5H174.5V174.5Z " fill="#000000" opacity="1"></path><path d="M876.5 174.5H957.5V255.5H876.5V174.5Z " fill="#000000" opacity="1"></path><path d="M174.5 876.5H255.5V957.5H174.5V876.5Z " fill="#000000" opacity="1"></path><path d="M336.5 282.5H363.5V309.5H336.5V282.5Z " fill="#000000" opacity="1"></path><path d="M282.5 336.5H309.5V363.5H282.5V336.5Z " fill="#000000" opacity="1"></path><path d="M390.5 282.5H417.5V309.5H390.5V282.5Z " fill="#000000" opacity="1"></path><path d="M282.5 390.5H309.5V417.5H282.5V390.5Z " fill="#000000" opacity="1"></path><path d="M444.5 282.5H471.5V309.5H444.5V282.5Z " fill="#000000" opacity="1"></path><path d="M282.5 444.5H309.5V471.5H282.5V444.5Z " fill="#000000" opacity="1"></path><path d="M498.5 282.5H525.5V309.5H498.5V282.5Z " fill="#000000" opacity="1"></path><path d="M282.5 498.5H309.5V525.5H282.5V498.5Z " fill="#000000" opacity="1"></path><path d="M552.5 282.5H579.5V309.5H552.5V282.5Z " fill="#000000" opacity="1"></path><path d="M282.5 552.5H309.5V579.5H282.5V552.5Z " fill="#000000" opacity="1"></path><path d="M606.5 282.5H633.5V309.5H606.5V282.5Z " fill="#000000" opacity="1"></path><path d="M282.5 606.5H309.5V633.5H282.5V606.5Z " fill="#000000" opacity="1"></path><path d="M660.5 282.5H687.5V309.5H660.5V282.5Z " fill="#000000" opacity="1"></path><path d="M282.5 660.5H309.5V687.5H282.5V660.5Z " fill="#000000" opacity="1"></path><path d="M714.5 282.5H741.5V309.5H714.5V282.5Z " fill="#000000" opacity="1"></path><path d="M282.5 714.5H309.5V741.5H282.5V714.5Z " fill="#000000" opacity="1"></path><path d="M768.5 282.5H795.5V309.5H768.5V282.5Z " fill="#000000" opacity="1"></path><path d="M282.5 768.5H309.5V795.5H282.5V768.5Z " fill="#000000" opacity="1"></path><path d="M768.5 768.5H795.5V795.5H768.5V768.5Z " fill="#000000" opacity="1"></path><path d="M768.5 795.5H795.5V822.5H768.5V795.5Z " fill="#000000" opacity="1"></path><path d="M768.5 822.5H795.5V849.5H768.5V822.5Z " fill="#000000" opacity="1"></path><path d="M768.5 849.5H795.5V876.5H768.5V849.5Z " fill="#000000" opacity="1"></path><path d="M876.5 795.5H903.5V822.5H876.5V795.5Z " fill="#000000" opacity="1"></path><path d="M876.5 822.5H903.5V849.5H876.5V822.5Z " fill="#000000" opacity="1"></path><path d="M876.5 849.5H903.5V876.5H876.5V849.5Z " fill="#000000" opacity="1"></path><path d="M876.5 876.5H903.5V903.5H876.5V876.5Z " fill="#000000" opacity="1"></path><path d="M795.5 768.5H822.5V795.5H795.5V768.5Z " fill="#000000" opacity="1"></path><path d="M822.5 768.5H849.5V795.5H822.5V768.5Z " fill="#000000" opacity="1"></path><path d="M849.5 768.5H876.5V795.5H849.5V768.5Z " fill="#000000" opacity="1"></path><path d="M876.5 768.5H903.5V795.5H876.5V768.5Z " fill="#000000" opacity="1"></path><path d="M768.5 876.5H795.5V903.5H768.5V876.5Z " fill="#000000" opacity="1"></path><path d="M795.5 876.5H822.5V903.5H795.5V876.5Z " fill="#000000" opacity="1"></path><path d="M822.5 876.5H849.5V903.5H822.5V876.5Z " fill="#000000" opacity="1"></path><path d="M849.5 876.5H876.5V903.5H849.5V876.5Z " fill="#000000" opacity="1"></path><path d="M822.5 822.5H849.5V849.5H822.5V822.5Z " fill="#000000" opacity="1"></path></svg>